<svg width="101" height="30" viewBox="0 0 101 30" fill="none" xmlns="http://www.w3.org/2000/svg">
<path fill-rule="evenodd" clip-rule="evenodd" d="M93.7994 0H7.22649C6.95292 0 6.68258 0 6.40962 0.0014C6.18121 0.003 5.95461 0.0072 5.72378 0.0108C5.22725 0.0232 4.72447 0.0536 4.22854 0.1416C3.72898 0.2284 3.26471 0.3766 2.8099 0.6058C2.36316 0.833 1.95513 1.1278 1.60214 1.4786C1.24491 1.8292 0.948963 2.2354 0.722771 2.6788C0.490733 3.129 0.343366 3.5918 0.256276 4.0878C0.166364 4.578 0.135318 5.074 0.122618 5.57C0.115562 5.797 0.114957 6.0246 0.111328 6.2516C0.111328 6.52 0.111328 6.7888 0.111328 7.06V22.9406C0.111328 23.214 0.111328 23.4814 0.111328 23.7506C0.114957 23.9802 0.115562 24.2032 0.122618 24.433C0.135318 24.929 0.166364 25.425 0.256276 25.915C0.343366 26.4112 0.490733 26.876 0.722771 27.325C0.948963 27.766 1.24491 28.1722 1.60214 28.5202C1.95513 28.8736 2.36316 29.1678 2.8099 29.3928C3.26471 29.624 3.72898 29.7702 4.22854 29.8598C4.72447 29.948 5.22725 29.977 5.72378 29.9906C5.95461 29.9958 6.18121 29.9984 6.40962 29.9984C6.68258 30 6.95292 30 7.22649 30H93.7994C94.0675 30 94.3397 30 94.6078 29.9984C94.8356 29.9984 95.0675 29.9958 95.2953 29.9906C95.7952 29.977 96.2972 29.948 96.7871 29.8598C97.287 29.7702 97.7527 29.624 98.2124 29.3928C98.6579 29.1678 99.0651 28.8736 99.4179 28.5202C99.7747 28.1722 100.071 27.766 100.301 27.325C100.529 26.876 100.678 26.4112 100.763 25.915C100.855 25.425 100.884 24.929 100.902 24.433C100.904 24.2032 100.904 23.9802 100.904 23.7506C100.91 23.4814 100.91 23.214 100.91 22.9406V7.06C100.91 6.7888 100.91 6.52 100.904 6.2516C100.904 6.0246 100.904 5.797 100.902 5.57C100.884 5.074 100.855 4.578 100.763 4.0878C100.678 3.5918 100.529 3.129 100.301 2.6788C100.071 2.2354 99.7747 1.8292 99.4179 1.4786C99.0651 1.1278 98.6579 0.833 98.2124 0.6058C97.7527 0.3766 97.287 0.2284 96.7871 0.1416C96.2972 0.0536 95.7952 0.0232 95.2953 0.0108C95.0675 0.0072 94.8356 0.003 94.6078 0.0014C94.3397 0 94.0675 0 93.7994 0Z" fill="#B0B0AC"/>
<path fill-rule="evenodd" clip-rule="evenodd" d="M5.73831 29.3441C5.321 29.3323 4.82628 29.3093 4.34346 29.2231C3.88785 29.1415 3.48324 29.0085 3.10706 28.8177C2.71798 28.6217 2.36801 28.3687 2.06461 28.0649C1.75556 27.7641 1.50155 27.4187 1.30297 27.0311C1.10964 26.6573 0.977194 26.2561 0.897765 25.8041C0.806845 25.3061 0.78346 24.8007 0.773582 24.4161C0.768945 24.2599 0.762695 23.7401 0.762695 23.7401V6.25126C0.762695 6.25126 0.769146 5.73946 0.773582 5.58906C0.78346 5.20126 0.806845 4.69626 0.89716 4.20306C0.976791 3.74866 1.10924 3.34786 1.30277 2.97266C1.50094 2.58426 1.75516 2.23686 2.06017 1.93766C2.36882 1.63106 2.72 1.37726 3.10666 1.18066C3.4901 0.987661 3.8941 0.855661 4.34043 0.778061C4.84301 0.688661 5.35245 0.666261 5.74012 0.656461L6.41345 0.647461H94.6036L95.285 0.656861C95.668 0.666261 96.176 0.688661 96.672 0.777261C97.1215 0.855261 97.5288 0.987861 97.9178 1.18286C98.3009 1.37726 98.6516 1.63106 98.9581 1.93466C99.2625 2.23546 99.5185 2.58466 99.7201 2.97426C99.9137 3.35286 100.045 3.75366 100.119 4.19506C100.208 4.66226 100.234 5.14186 100.25 5.59226C100.252 5.80206 100.252 6.02726 100.252 6.25126C100.258 6.52886 100.258 6.79326 100.258 7.05966V22.9403C100.258 23.2095 100.258 23.4717 100.252 23.7365C100.252 23.9773 100.252 24.1977 100.248 24.4247C100.234 24.8607 100.208 25.3401 100.121 25.7969C100.045 26.2511 99.9136 26.6523 99.7181 27.0333C99.5185 27.4179 99.2625 27.7657 98.9601 28.0593C98.6516 28.3687 98.3029 28.6209 97.9158 28.8161C97.5288 29.0115 97.1336 29.1407 96.672 29.2231C96.1942 29.3093 95.6983 29.3323 95.2769 29.3441C95.0592 29.3489 94.8294 29.3519 94.6076 29.3519L93.7992 29.3535L6.41305 29.3519C6.18565 29.3519 5.96389 29.3489 5.73831 29.3441Z" fill="#0A0B09"/>
<path fill-rule="evenodd" clip-rule="evenodd" d="M34.4308 19.0583H37.0735L36.1275 16.5455C35.9972 16.1985 35.8692 15.8151 35.743 15.3951C35.6291 15.7667 35.5049 16.1459 35.3707 16.5335L34.4308 19.0583ZM37.5251 20.2511H33.9853L33.1188 22.6003H31.5625L35.029 13.8271H36.4998L40.0457 22.6003H38.4101L37.5251 20.2511Z" fill="#FFFFFE"/>
<path fill-rule="evenodd" clip-rule="evenodd" d="M44.6366 21.0051C44.9438 20.5955 45.0975 19.9969 45.0975 19.2099C45.0975 18.4793 44.9703 17.9495 44.716 17.6203C44.4616 17.2915 44.1229 17.1271 43.6998 17.1271C43.4069 17.1271 43.1363 17.1957 42.8882 17.3329C42.64 17.4701 42.4039 17.6537 42.1802 17.8839V21.3835C42.3307 21.4561 42.5057 21.5137 42.7051 21.5559C42.9045 21.5985 43.1019 21.6197 43.297 21.6197C43.883 21.6197 44.3294 21.4147 44.6366 21.0051ZM40.6728 17.6659C40.6728 17.1815 40.6565 16.6487 40.624 16.0675H42.0398C42.0927 16.3379 42.1293 16.6145 42.1497 16.8969C42.7356 16.2633 43.4069 15.9463 44.1637 15.9463C44.6031 15.9463 45.01 16.0563 45.3843 16.2763C45.7585 16.4963 46.0607 16.8435 46.2905 17.3177C46.5205 17.7921 46.6354 18.3947 46.6354 19.1251C46.6354 19.8879 46.5042 20.5399 46.2417 21.0807C45.9792 21.6217 45.6121 22.0313 45.1402 22.3099C44.6683 22.5883 44.1229 22.7277 43.5046 22.7277C43.0569 22.7277 42.6154 22.6529 42.1802 22.5037V25.2039L40.6728 25.3311V17.6659Z" fill="#FFFFFE"/>
<path fill-rule="evenodd" clip-rule="evenodd" d="M51.5138 21.0051C51.821 20.5955 51.9746 19.9969 51.9746 19.2099C51.9746 18.4793 51.8474 17.9495 51.5932 17.6203C51.3388 17.2915 51.0001 17.1271 50.5769 17.1271C50.284 17.1271 50.0135 17.1957 49.7653 17.3329C49.5169 17.4701 49.2811 17.6537 49.0573 17.8839V21.3835C49.2079 21.4561 49.3827 21.5137 49.5823 21.5559C49.7814 21.5985 49.9788 21.6197 50.1742 21.6197C50.76 21.6197 51.2065 21.4147 51.5138 21.0051ZM47.5498 17.6659C47.5498 17.1815 47.5334 16.6487 47.501 16.0675H48.917C48.9698 16.3379 49.0065 16.6145 49.0269 16.8969C49.6127 16.2633 50.284 15.9463 51.0408 15.9463C51.4803 15.9463 51.8869 16.0563 52.2615 16.2763C52.6357 16.4963 52.9378 16.8435 53.1679 17.3177C53.3975 17.7921 53.5126 18.3947 53.5126 19.1251C53.5126 19.8879 53.3812 20.5399 53.1189 21.0807C52.8564 21.6217 52.4891 22.0313 52.0174 22.3099C51.5452 22.5883 51.0001 22.7277 50.3816 22.7277C49.934 22.7277 49.4926 22.6529 49.0573 22.5037V25.2039L47.5498 25.3311V17.6659Z" fill="#FFFFFE"/>
<path fill-rule="evenodd" clip-rule="evenodd" d="M56.2821 22.1855C55.6309 21.8285 55.1306 21.3167 54.7808 20.6507C54.4306 19.9847 54.2559 19.1975 54.2559 18.2893C54.2559 17.3045 54.4573 16.4679 54.86 15.7795C55.2628 15.0915 55.8112 14.5747 56.5047 14.2297C57.1986 13.8845 57.9765 13.7119 58.8394 13.7119C59.3478 13.7119 59.833 13.7675 60.2949 13.8785C60.7565 13.9895 61.1868 14.1419 61.5857 14.3357L61.2011 15.4861C60.3995 15.1067 59.6347 14.9169 58.9065 14.9169C58.292 14.9169 57.754 15.0471 57.2923 15.3075C56.8305 15.5679 56.4712 15.9503 56.215 16.4547C55.9585 16.9595 55.8305 17.5689 55.8305 18.2833C55.8305 18.9091 55.9291 19.4639 56.1263 19.9483C56.3238 20.4327 56.6351 20.8163 57.0603 21.0987C57.4854 21.3813 58.0215 21.5225 58.6684 21.5225C58.9613 21.5225 59.2542 21.4983 59.5472 21.4499C59.8401 21.4015 60.1149 21.3309 60.3711 21.2379V19.4639H58.3267V18.3015H61.8359V21.9949C61.3313 22.2289 60.8013 22.4087 60.2461 22.5337C59.6905 22.6587 59.1383 22.7213 58.589 22.7213C57.702 22.7213 56.9329 22.5429 56.2821 22.1855Z" fill="#FFFFFE"/>
<path fill-rule="evenodd" clip-rule="evenodd" d="M66.289 21.3895C66.602 21.2403 66.8585 21.0545 67.0579 20.8325V19.6215C66.6468 19.5773 66.3111 19.5549 66.0509 19.5549C65.4283 19.5549 64.9979 19.6547 64.7603 19.8547C64.522 20.0543 64.403 20.3239 64.403 20.6629C64.403 20.9861 64.4895 21.2251 64.6625 21.3805C64.8354 21.5359 65.0703 21.6135 65.3673 21.6135C65.6682 21.6135 65.9755 21.5389 66.289 21.3895ZM67.1921 22.6005C67.1391 22.3461 67.1044 22.0577 67.0883 21.7347C66.8565 22.0093 66.5545 22.2423 66.1819 22.4341C65.81 22.6257 65.3896 22.7215 64.9217 22.7215C64.5433 22.7215 64.1986 22.6479 63.8871 22.5005C63.5763 22.3533 63.3289 22.1313 63.1459 21.8345C62.9628 21.5379 62.8711 21.1757 62.8711 20.7477C62.8711 20.1141 63.1009 19.6085 63.5608 19.2309C64.0206 18.8535 64.7875 18.6649 65.8616 18.6649C66.2644 18.6649 66.6631 18.6933 67.0579 18.7497V18.6225C67.0579 18.0453 66.9337 17.6387 66.6855 17.4025C66.4373 17.1665 66.0813 17.0483 65.6176 17.0483C65.2961 17.0483 64.9524 17.0949 64.5861 17.1875C64.22 17.2805 63.8984 17.3915 63.6218 17.5205L63.3838 16.4307C63.6523 16.3097 64.0063 16.1987 64.4458 16.0977C64.8852 15.9969 65.3489 15.9463 65.8372 15.9463C66.4069 15.9463 66.8909 16.0321 67.2897 16.2035C67.6884 16.3753 67.9997 16.6701 68.2235 17.0875C68.4473 17.5055 68.5591 18.0677 68.5591 18.7739V21.3713C68.5591 21.6419 68.5753 22.0517 68.6079 22.6005H67.1921Z" fill="#FFFFFE"/>
<path fill-rule="evenodd" clip-rule="evenodd" d="M69.7158 21.0322V13.3124L71.2171 13.1914V20.7658C71.2171 21.0444 71.2649 21.241 71.3604 21.3562C71.456 21.471 71.6076 21.5288 71.8152 21.5288C71.9088 21.5288 72.041 21.5066 72.2118 21.4622L72.3888 22.5338C72.2463 22.5904 72.0725 22.6358 71.8673 22.67C71.6616 22.7042 71.4673 22.7214 71.2842 22.7214C70.2384 22.7214 69.7158 22.1584 69.7158 21.0322Z" fill="#FFFFFE"/>
<path fill-rule="evenodd" clip-rule="evenodd" d="M73.4688 21.0322V13.3124L74.97 13.1914V20.7658C74.97 21.0444 75.0178 21.241 75.1134 21.3562C75.2091 21.471 75.3607 21.5288 75.5682 21.5288C75.6617 21.5288 75.794 21.5066 75.9649 21.4622L76.1419 22.5338C75.9994 22.5904 75.8254 22.6358 75.6202 22.67C75.4146 22.7042 75.2202 22.7214 75.0372 22.7214C73.9915 22.7214 73.4688 22.1584 73.4688 21.0322Z" fill="#FFFFFE"/>
<path fill-rule="evenodd" clip-rule="evenodd" d="M80.8466 18.5741C80.8164 18.0535 80.6853 17.6629 80.4495 17.4025C80.2136 17.1423 79.8971 17.0119 79.504 17.0119C79.1209 17.0119 78.8024 17.1433 78.5484 17.4055C78.2944 17.6681 78.1271 18.0575 78.0505 18.5741H80.8466ZM82.3162 19.5247H78.0081C78.0767 20.8931 78.7339 21.5773 79.9797 21.5773C80.2882 21.5773 80.6047 21.5399 80.9293 21.4653C81.2518 21.3905 81.5623 21.2907 81.8586 21.1655L82.1892 22.1887C81.4514 22.5441 80.6248 22.7215 79.7056 22.7215C79.004 22.7215 78.4153 22.5905 77.9355 22.3281C77.4537 22.0657 77.0929 21.6883 76.851 21.1957C76.6094 20.7035 76.4883 20.1101 76.4883 19.4157C76.4883 18.6933 76.6165 18.0715 76.8731 17.5509C77.1292 17.0301 77.486 16.6327 77.9436 16.3581C78.4012 16.0837 78.9294 15.9463 79.5282 15.9463C80.1511 15.9463 80.6692 16.0907 81.0865 16.3793C81.5038 16.6679 81.8123 17.0525 82.0139 17.5327C82.2154 18.0131 82.3162 18.5439 82.3162 19.1251V19.5247Z" fill="#FFFFFE"/>
<path fill-rule="evenodd" clip-rule="evenodd" d="M83.4576 17.7083C83.4576 17.3491 83.4395 16.8023 83.4072 16.0675H84.8184C84.8426 16.2491 84.8648 16.4661 84.889 16.7185C84.9111 16.9705 84.9253 17.1755 84.9333 17.3329C85.1087 17.0463 85.2801 16.8051 85.4494 16.6095C85.6187 16.4135 85.8163 16.2541 86.0421 16.1309C86.2679 16.0079 86.5239 15.9463 86.8142 15.9463C87.046 15.9463 87.2436 15.9705 87.4109 16.0191L87.2214 17.3147C87.0763 17.2703 86.913 17.2481 86.7336 17.2481C86.3808 17.2481 86.0703 17.3379 85.8062 17.5177C85.5421 17.6971 85.2599 17.9929 84.9575 18.4045V22.6005H83.4576V17.7083Z" fill="#FFFFFE"/>
<path fill-rule="evenodd" clip-rule="evenodd" d="M88.2571 25.2734C88.0374 25.2352 87.856 25.1918 87.7148 25.1434L87.989 24.0536C88.0898 24.0816 88.2188 24.109 88.3741 24.1352C88.5273 24.1616 88.6744 24.1746 88.8135 24.1746C89.4808 24.1746 89.9808 23.7486 90.3134 22.897L90.4122 22.6548L87.983 16.0674H89.5998L90.8215 19.7486C91.019 20.3784 91.148 20.8608 91.2045 21.1956C91.3194 20.7234 91.4525 20.2512 91.6077 19.7788L92.8475 16.0674H94.3655L91.9443 22.6852C91.7165 23.3108 91.4686 23.8152 91.2045 24.1988C90.9404 24.5822 90.6279 24.8668 90.2691 25.0526C89.9082 25.238 89.4748 25.331 88.9647 25.331C88.7128 25.331 88.4769 25.312 88.2571 25.2734Z" fill="#FFFFFE"/>
<path fill-rule="evenodd" clip-rule="evenodd" d="M31.5557 5.47559H34.2426L34.167 6.11939H32.3431V7.36619H34.0629V7.96939H32.3431V9.35059H34.2645L34.1984 10.0006H31.5557V5.47559Z" fill="#FFFFFE"/>
<path fill-rule="evenodd" clip-rule="evenodd" d="M36.0945 7.69119L34.6771 5.47559H35.5716L36.5324 7.10359L37.5436 5.47559H38.4129L37.0079 7.66299L38.5294 10.0006H37.6222L36.5356 8.21939L35.4298 10.0006H34.5605L36.0945 7.69119Z" fill="#FFFFFE"/>
<path fill-rule="evenodd" clip-rule="evenodd" d="M41.0834 7.49579C41.2514 7.34499 41.3354 7.13179 41.3354 6.85679C41.3354 6.57779 41.2498 6.37679 41.0788 6.25359C40.9077 6.13079 40.6561 6.06939 40.3244 6.06939H39.896V7.67559C40.0934 7.70679 40.2446 7.72239 40.3496 7.72239C40.6708 7.72239 40.9155 7.64699 41.0834 7.49579ZM39.1084 5.47559H40.3369C40.9143 5.47559 41.3564 5.59239 41.663 5.82559C41.9697 6.05899 42.1229 6.39639 42.1229 6.83799C42.1229 7.13799 42.0541 7.40019 41.9166 7.62399C41.779 7.84799 41.5874 8.01999 41.3417 8.13959C41.0961 8.25959 40.8135 8.31939 40.4944 8.31939C40.3202 8.31939 40.1206 8.29859 39.896 8.25679V10.0006H39.1084V5.47559Z" fill="#FFFFFE"/>
<path fill-rule="evenodd" clip-rule="evenodd" d="M42.9014 5.47559H43.6888V9.33179H45.5756L45.5094 10.0006H42.9014V5.47559Z" fill="#FFFFFE"/>
<path fill-rule="evenodd" clip-rule="evenodd" d="M48.8143 9.22409C49.0348 9.07729 49.1995 8.87529 49.3088 8.61789C49.4181 8.36069 49.4727 8.06629 49.4727 7.73509C49.4727 7.41009 49.4243 7.12049 49.3278 6.86629C49.231 6.61209 49.0768 6.40969 48.8647 6.25849C48.6526 6.10749 48.3796 6.03189 48.0456 6.03189C47.7265 6.03189 47.4555 6.10849 47.233 6.26169C47.0104 6.41469 46.8435 6.62009 46.7322 6.87729C46.6209 7.13469 46.5653 7.41849 46.5653 7.72869C46.5653 8.05589 46.6177 8.34869 46.7227 8.60689C46.8276 8.86529 46.9882 9.06949 47.2047 9.21949C47.4209 9.36949 47.6886 9.44449 48.0079 9.44449C48.325 9.44449 48.5937 9.37089 48.8143 9.22409ZM46.7731 9.77869C46.4393 9.58929 46.1841 9.32309 46.0077 8.98029C45.8313 8.63769 45.7432 8.23929 45.7432 7.78509C45.7432 7.30809 45.8369 6.89089 46.025 6.53349C46.2129 6.17629 46.4838 5.90029 46.8376 5.70529C47.1914 5.51069 47.6087 5.41309 48.0897 5.41309C48.5496 5.41309 48.9455 5.50749 49.2774 5.69589C49.609 5.88469 49.8622 6.14969 50.0364 6.49129C50.2107 6.83309 50.2978 7.22869 50.2978 7.67869C50.2978 8.16429 50.2029 8.58629 50.0128 8.94449C49.8227 9.30289 49.5519 9.57869 49.2001 9.77249C48.8484 9.96629 48.4353 10.0631 47.9607 10.0631C47.5029 10.0631 47.107 9.96849 46.7731 9.77869Z" fill="#FFFFFE"/>
<path fill-rule="evenodd" clip-rule="evenodd" d="M52.4115 7.61619C52.6024 7.61619 52.7716 7.57919 52.9185 7.50519C53.0655 7.43139 53.18 7.32719 53.2619 7.19279C53.3439 7.05839 53.3848 6.90279 53.3848 6.72559C53.3848 6.49859 53.3123 6.33239 53.1675 6.22719C53.0226 6.12199 52.8115 6.06939 52.5343 6.06939H51.9642V7.61619H52.4115ZM51.1768 5.47559H52.6036C53.1244 5.47559 53.5187 5.57859 53.7864 5.78499C54.0541 5.99119 54.188 6.28619 54.188 6.66939C54.188 6.90899 54.1396 7.11999 54.043 7.30219C53.9465 7.48459 53.8267 7.63299 53.684 7.74739C53.5411 7.86199 53.3943 7.94739 53.2431 8.00359L54.6448 10.0006H53.7314L52.5438 8.20679H51.9642V10.0006H51.1768V5.47559Z" fill="#FFFFFE"/>
<path fill-rule="evenodd" clip-rule="evenodd" d="M55.2686 5.47559H57.9554L57.8798 6.11939H56.056V7.36619H57.7758V7.96939H56.056V9.35059H57.9774L57.9113 10.0006H55.2686V5.47559Z" fill="#FFFFFE"/>
<path fill-rule="evenodd" clip-rule="evenodd" d="M60.8779 10.0006H61.6654V5.47559H60.8779V10.0006Z" fill="#FFFFFE"/>
<path fill-rule="evenodd" clip-rule="evenodd" d="M63.7474 6.12859H62.333L62.4024 5.47559H65.9525L65.8799 6.12859H64.5349V10.0006H63.7474V6.12859Z" fill="#FFFFFE"/>
<path fill-rule="evenodd" clip-rule="evenodd" d="M71.4121 9.22409C71.6325 9.07729 71.7974 8.87529 71.9067 8.61789C72.0157 8.36069 72.0704 8.06629 72.0704 7.73509C72.0704 7.41009 72.022 7.12049 71.9256 6.86629C71.8289 6.61209 71.6744 6.40969 71.4625 6.25849C71.2503 6.10749 70.9773 6.03189 70.6435 6.03189C70.3241 6.03189 70.0534 6.10849 69.8308 6.26169C69.6081 6.41469 69.4411 6.62009 69.3301 6.87729C69.2186 7.13469 69.1629 7.41849 69.1629 7.72869C69.1629 8.05589 69.2153 8.34869 69.3206 8.60689C69.4254 8.86529 69.5861 9.06949 69.8024 9.21949C70.0187 9.36949 70.2864 9.44449 70.6058 9.44449C70.9227 9.44449 71.1916 9.37089 71.4121 9.22409ZM69.371 9.77869C69.0369 9.58929 68.7819 9.32309 68.6055 8.98029C68.4291 8.63769 68.3408 8.23929 68.3408 7.78509C68.3408 7.30809 68.4348 6.89089 68.6229 6.53349C68.8105 6.17629 69.0815 5.90029 69.4355 5.70529C69.7893 5.51069 70.2066 5.41309 70.6876 5.41309C71.1474 5.41309 71.5432 5.50749 71.8752 5.69589C72.2068 5.88469 72.4598 6.14969 72.6342 6.49129C72.8084 6.83309 72.8957 7.22869 72.8957 7.67869C72.8957 8.16429 72.8005 8.58629 72.6106 8.94449C72.4205 9.30289 72.1496 9.57869 71.798 9.77249C71.4462 9.96629 71.0329 10.0631 70.5584 10.0631C70.1006 10.0631 69.7048 9.96849 69.371 9.77869Z" fill="#FFFFFE"/>
<path fill-rule="evenodd" clip-rule="evenodd" d="M73.7744 5.47559H74.6786L76.9342 8.98179C76.9141 8.64859 76.906 8.34119 76.906 8.05999V5.47559H77.6358V10.0006H76.7609L74.4707 6.43799C74.4937 6.84239 74.5052 7.20059 74.5052 7.51299V10.0006H73.7744V5.47559Z" fill="#FFFFFE"/>
<path fill-rule="evenodd" clip-rule="evenodd" d="M20.4792 5.5H12.1041C8.15885 5.5 6.71582 6.9316 6.71582 10.8456V19.1544C6.71582 23.0684 8.15885 24.5 12.1041 24.5H20.4766C24.4219 24.5 25.8675 23.0684 25.8675 19.1544V10.8456C25.8675 6.9316 24.4245 5.5 20.4792 5.5Z" fill="#B52532"/>
<path fill-rule="evenodd" clip-rule="evenodd" d="M15.0706 16.5196H15.8387L15.4534 15.6306L15.0706 16.5196ZM14.8815 16.9676L14.6537 17.4848H14.135L15.2381 15.002H15.6863L16.785 17.4848H16.2524L16.0274 16.9676H14.8815ZM23.2282 17.483H23.7296V15.002H23.2282V17.483ZM21.233 16.417H22.1569V15.9648H21.233V15.4562H22.5742V15.0036H20.7318V17.4846H22.6226V17.032H21.233V16.417ZM19.241 16.7102L18.6725 15.002H18.258L17.6895 16.7102L17.1364 15.0032H16.5957L17.4684 17.486H17.8889L18.4582 15.855L19.0273 17.486H19.4517L20.3222 15.0032H19.7954L19.241 16.7102ZM13.3697 16.4238C13.3697 16.8278 13.1675 17.0436 12.8004 17.0436C12.4313 17.0436 12.2281 16.8216 12.2281 16.4066V15.0034H11.7201V16.4238C11.7201 17.1226 12.1114 17.5232 12.7936 17.5232C13.4824 17.5232 13.8775 17.115 13.8775 16.4034V15.002H13.3697V16.4238ZM10.5079 15.002H11.0157V17.4862H10.5079V16.4774H9.36056V17.4862H8.85254V15.002H9.36056V16.0042H10.5079V15.002Z" fill="#FFFFFE"/>
<path fill-rule="evenodd" clip-rule="evenodd" d="M16.2914 11.8384C14.5336 11.8384 13.1035 10.4196 13.1035 8.67578H13.5539C13.5539 10.1732 14.7818 11.3916 16.2914 11.3916C17.8009 11.3916 19.0288 10.1732 19.0288 8.67578H19.4792C19.4792 10.4196 18.0491 11.8384 16.2914 11.8384Z" fill="#FFFFFE"/>
</svg>
