<svg width="92" height="30" viewBox="0 0 92 30" fill="none" xmlns="http://www.w3.org/2000/svg">
<path d="M84.4367 9.74997e-05H7.30992C7.02878 9.74997e-05 6.75102 9.74995e-05 6.47063 0.00159749C6.23591 0.00309749 6.00307 0.00745498 5.7661 0.0111225C5.25129 0.0170488 4.7377 0.0613545 4.22978 0.143655C3.72257 0.227746 3.23125 0.386283 2.77244 0.613903C2.31418 0.843449 1.89546 1.14172 1.53147 1.4979C1.16557 1.85307 0.860555 2.2636 0.628168 2.71371C0.39514 3.16292 0.233558 3.64429 0.149002 4.14119C0.0636417 4.63747 0.0177088 5.13947 0.011615 5.64269C0.00450033 5.87264 0.003749 6.10335 0 6.33333V23.669C0.003749 23.9018 0.00450033 24.1274 0.011615 24.3604C0.0177106 24.8636 0.0636436 25.3656 0.149002 25.8618C0.233324 26.359 0.394916 26.8407 0.628168 27.29C0.86045 27.7387 1.1655 28.1476 1.53147 28.5008C1.89408 28.8585 2.31307 29.157 2.77244 29.3848C3.23125 29.613 3.72251 29.7725 4.22978 29.8579C4.73778 29.9395 5.25133 29.9838 5.7661 29.9905C6.00307 29.9956 6.23591 29.9985 6.47063 29.9985C6.75101 30 7.0288 30 7.30992 30H84.4367C84.7122 30 84.9922 30 85.2677 29.9985C85.5013 29.9985 85.7409 29.9956 85.9745 29.9905C86.4883 29.9842 87.0009 29.9399 87.5078 29.8579C88.0167 29.7719 88.5098 29.6124 88.9708 29.3848C89.4297 29.1569 89.8484 28.8584 90.2106 28.5008C90.5757 28.1462 90.8814 27.7376 91.1165 27.29C91.348 26.8403 91.5081 26.3587 91.5912 25.8618C91.6767 25.3655 91.7242 24.8636 91.7335 24.3604C91.7365 24.1274 91.7365 23.9018 91.7365 23.669C91.7425 23.3965 91.7425 23.1255 91.7425 22.8486V7.15217C91.7425 6.87751 91.7425 6.60506 91.7365 6.33333C91.7365 6.10335 91.7365 5.87264 91.7335 5.64266C91.7242 5.1394 91.6767 4.63751 91.5912 4.14116C91.5079 3.64455 91.3478 3.16321 91.1165 2.71368C90.6433 1.81149 89.8929 1.07711 88.9708 0.613835C88.5098 0.386772 88.0167 0.228277 87.5078 0.143587C87.001 0.0609244 86.4883 0.0166033 85.9745 0.0110175C85.7409 0.00735748 85.5013 0.00296249 85.2677 0.0015C84.9922 0 84.7122 0 84.4367 0V9.74997e-05Z" fill="white"/>
<path d="M6.47401 29.3437C6.24042 29.3437 6.01247 29.3407 5.78072 29.3356C5.30062 29.3295 4.82164 29.2886 4.34771 29.2133C3.9058 29.1389 3.4777 29.0004 3.07754 28.8024C2.68106 28.6061 2.31943 28.3486 2.00651 28.0399C1.68906 27.7349 1.42478 27.3811 1.22412 26.9926C1.02125 26.6015 0.880854 26.1823 0.807819 25.7497C0.728948 25.2848 0.686275 24.8147 0.680169 24.3434C0.675309 24.1852 0.668945 23.6586 0.668945 23.6586V6.33324C0.668945 6.33324 0.675723 5.81468 0.680208 5.66233C0.686054 5.19185 0.728479 4.72248 0.807114 4.25829C0.880284 3.82443 1.02079 3.40405 1.22377 3.01171C1.42369 2.62345 1.68651 2.26939 2.00204 1.96326C2.31722 1.65421 2.68001 1.39545 3.07717 1.19641C3.47641 0.999069 3.90369 0.861549 4.34471 0.788452C4.8202 0.712377 5.30084 0.671247 5.7826 0.665407L6.47438 0.65625H85.2636L85.9636 0.665775C86.441 0.671324 86.9173 0.712087 87.3884 0.787717C87.8339 0.861731 88.2656 1.00021 88.6694 1.1986C89.4651 1.59974 90.1125 2.23437 90.5209 3.01354C90.7207 3.40317 90.859 3.82012 90.9313 4.25023C91.0108 4.71823 91.0554 5.19129 91.0645 5.66563C91.0667 5.87803 91.0667 6.10618 91.0667 6.33324C91.0728 6.61449 91.0728 6.88218 91.0728 7.15208V22.8485C91.0728 23.121 91.0728 23.3869 91.0667 23.6549C91.0667 23.8988 91.0667 24.1222 91.0637 24.3522C91.0548 24.8181 91.011 25.2827 90.9327 25.7423C90.8612 26.1781 90.7215 26.6005 90.5187 26.9948C90.3166 27.3791 90.0539 27.7299 89.7401 28.0341C89.4269 28.3444 89.0646 28.6034 88.6672 28.801C88.2645 29.0005 87.8334 29.1395 87.3884 29.2133C86.9145 29.289 86.4355 29.3299 85.9554 29.3356C85.7308 29.3407 85.4957 29.3437 85.2674 29.3437L84.4363 29.3452L6.47401 29.3437Z" fill="black"/>
<path fill-rule="evenodd" clip-rule="evenodd" d="M57.2544 21.8071C56.001 21.8071 55.0839 21.2007 54.9783 20.2771L53.5198 20.277C53.6119 21.9616 55.0374 23.0273 57.1488 23.0273C59.4053 23.0273 60.8241 21.936 60.8241 20.1936C60.8241 18.8313 60.0125 18.0637 58.0592 17.6118L57.0103 17.3598C55.7832 17.0632 55.2815 16.6758 55.2815 16.0173C55.2815 15.1912 56.0669 14.6235 57.2147 14.6235C58.3624 14.6235 59.1478 15.1846 59.2339 16.114H60.6722C60.6257 14.5071 59.2466 13.4033 57.2349 13.4033C55.2022 13.4033 53.7707 14.5071 53.7707 16.114C53.7707 17.4119 54.5823 18.2117 56.3305 18.6247L57.5643 18.9155C58.7982 19.2122 59.3193 19.645 59.3193 20.3679C59.3193 21.2007 58.4553 21.8071 57.2544 21.8071ZM32.432 20.3548H28.8031L27.9316 22.8721H26.3945L29.8318 13.5586H31.4288L34.866 22.8721H33.3028L32.432 20.3548ZM29.1789 19.1931H32.0555L30.6374 15.1077H30.5978L29.1789 19.1931ZM39.3927 22.9431C41.1349 22.9431 42.2894 21.5874 42.2894 19.4773C42.2894 17.3731 41.1281 16.0108 39.3665 16.0108C38.46 15.9822 37.6108 16.4434 37.1563 17.2112H37.1301V16.0818H35.751V25.1184H37.1758V21.7551H37.2087C37.6439 22.5278 38.4921 22.9892 39.3927 22.9431ZM40.8249 19.4773C40.8249 18.1026 40.0987 17.1988 38.9906 17.1988C37.902 17.1988 37.1698 18.1216 37.1698 19.4773C37.1698 20.8455 37.902 21.7617 38.9906 21.7617C40.0987 21.7617 40.8249 20.8645 40.8249 19.4773ZM47.0324 22.9431C48.7746 22.9431 49.9291 21.5874 49.9291 19.4773C49.9291 17.3731 48.7679 16.0108 47.0062 16.0108C46.0997 15.9822 45.2505 16.4434 44.796 17.2112H44.7698V16.0818H43.3907V25.1184H44.8155V21.7551H44.8484C45.2836 22.5278 46.1318 22.9892 47.0324 22.9431ZM48.4646 19.4773C48.4646 18.1026 47.7384 17.1988 46.6303 17.1988C45.5417 17.1988 44.8095 18.1216 44.8095 19.4773C44.8095 20.8455 45.5417 21.7617 46.6303 21.7617C47.7384 21.7617 48.4646 20.8645 48.4646 19.4773ZM63.8991 14.4749V16.0818H65.219V17.1856H63.8991V20.929C63.8991 21.5105 64.1634 21.7815 64.7436 21.7815C64.9003 21.7788 65.0567 21.7681 65.2123 21.7493V22.8464C64.9514 22.8941 64.6862 22.9157 64.4209 22.9109C63.0156 22.9109 62.4675 22.3945 62.4675 21.0776V17.1856H61.4583V16.0818H62.4675V14.4749H63.8991ZM69.2755 15.9983C67.2697 15.9983 65.9835 17.3409 65.9835 19.4773C65.9835 21.6196 67.257 22.9563 69.2755 22.9563C71.2947 22.9563 72.5683 21.6196 72.5683 19.4773C72.5683 17.3408 71.288 15.9983 69.2755 15.9983ZM71.1165 19.4773C71.1165 18.0117 70.43 17.1468 69.2755 17.1468C68.121 17.1468 67.4352 18.0183 67.4352 19.4773C67.4352 20.9487 68.121 21.8071 69.2755 21.8071C70.43 21.8071 71.1165 20.9487 71.1165 19.4773H71.1165ZM75.1018 16.0818H73.7429L73.7429 22.8721H75.1677V18.8445C75.1203 18.437 75.2572 18.0296 75.5427 17.7293C75.8281 17.4289 76.2335 17.2656 76.6524 17.2822C76.869 17.2761 77.0853 17.3045 77.2925 17.3665V16.0628C77.1323 16.0276 76.9686 16.0102 76.8044 16.0108C76.0212 15.9815 75.3243 16.4936 75.1348 17.2376H75.1018V16.0818ZM83.8616 20.8777C83.6699 22.1104 82.4428 22.9563 80.8728 22.9563C78.8535 22.9563 77.6002 21.6328 77.6002 19.5095C77.6002 17.3797 78.8603 15.9983 80.8129 15.9983C82.7333 15.9983 83.9409 17.2888 83.9409 19.3477V19.8252H79.0385V19.9094C78.9927 20.415 79.1711 20.9154 79.5284 21.2833C79.8857 21.6513 80.3873 21.8514 80.9057 21.8328C81.5971 21.8961 82.249 21.5077 82.5087 20.8777L83.8616 20.8777ZM82.5154 18.8511H79.0452C79.044 18.3927 79.23 17.9527 79.562 17.6291C79.8939 17.3055 80.3443 17.125 80.8129 17.1277C81.2778 17.1179 81.7259 17.2984 82.0491 17.6255C82.3722 17.9526 82.5413 18.3968 82.5154 18.8511Z" fill="white"/>
<path fill-rule="evenodd" clip-rule="evenodd" d="M45.3052 6.32812H45.9865V11.0237H45.3052V6.32812ZM30.6143 7.16203C30.1973 6.73128 29.6049 6.50616 29 6.54862H27.3477V11.0237H29C30.3627 11.0237 31.1525 10.2019 31.1525 8.77225C31.2288 8.18373 31.0313 7.59277 30.6143 7.16203ZM28.9207 10.3909H28.0582V7.18103H28.9207C29.3506 7.15769 29.7688 7.32354 30.0607 7.63322C30.3526 7.9429 30.4878 8.36401 30.4293 8.78137C30.4924 9.20046 30.3591 9.62507 30.0665 9.9373C29.7738 10.2495 29.3529 10.4161 28.9207 10.3909ZM31.9551 9.33362C31.8959 8.72829 32.1927 8.14245 32.7208 7.82182C33.249 7.50118 33.9173 7.50118 34.4455 7.82182C34.9737 8.14245 35.2704 8.72829 35.2112 9.33362C35.2715 9.9396 34.9751 10.5266 34.4465 10.8479C33.9178 11.1692 33.2486 11.1692 32.7199 10.8479C32.1913 10.5266 31.8948 9.9396 31.9551 9.33362ZM33.5843 8.17347C34.1743 8.17347 34.5104 8.60157 34.5104 9.33362H34.5104C34.5104 10.0686 34.1743 10.4963 33.5843 10.4963C32.9921 10.4963 32.6589 10.0715 32.6589 9.33363C32.6589 8.60157 32.9921 8.17347 33.5843 8.17347ZM39.5394 11.0237H38.8327L38.1192 8.53637H38.0653L37.3548 11.0237H36.6547L35.7031 7.64649H36.3942L37.0126 10.2235H37.0635L37.7733 7.64649H38.4269L39.1367 10.2235H39.1906L39.806 7.64649H40.4873L39.5394 11.0237ZM41.9435 7.64649H41.2877L41.2877 11.0237H41.969V9.04797C41.9445 8.82322 42.0216 8.59923 42.1801 8.43473C42.3385 8.27023 42.5625 8.18162 42.7933 8.19214C43.2972 8.19214 43.5382 8.46204 43.5382 9.00476V11.0236H44.2196V8.83739C44.2695 8.50719 44.1632 8.17268 43.9308 7.92832C43.6983 7.68396 43.3649 7.55627 43.0246 7.5813C42.5852 7.54635 42.1715 7.78798 41.9944 8.18298H41.9435V7.64649ZM47.6994 7.82176C47.1712 8.1424 46.8744 8.72825 46.9336 9.33362C46.8733 9.93963 47.1698 10.5266 47.6985 10.8479C48.2272 11.1692 48.8965 11.1692 49.4251 10.8479C49.9538 10.5266 50.2503 9.93963 50.1901 9.33362C50.2492 8.72825 49.9524 8.1424 49.4242 7.82176C48.896 7.50112 48.2276 7.50112 47.6994 7.82176ZM49.4889 9.33362C49.4889 8.60157 49.1527 8.17347 48.5628 8.17347C47.9705 8.17347 47.6374 8.60157 47.6374 9.33363C47.6374 10.0715 47.9706 10.4963 48.5628 10.4963C49.1527 10.4963 49.4889 10.0686 49.4889 9.33362ZM52.1913 9.06043C51.37 9.11023 50.9073 9.46069 50.9073 10.0686C50.9085 10.3568 51.0342 10.6312 51.2535 10.8237C51.4727 11.0163 51.765 11.1091 52.0581 11.0793C52.4761 11.0982 52.8723 10.8957 53.095 10.5491H53.1489V11.0237H53.8048V8.71619C53.8048 8.00281 53.3166 7.58131 52.4511 7.58131C51.668 7.58131 51.1102 7.95338 51.0406 8.53346H51.7002C51.7758 8.29469 52.0393 8.15809 52.4197 8.15809C52.8854 8.15809 53.1264 8.3595 53.1264 8.71619V9.00769L52.1913 9.06043ZM53.1264 9.78003V9.49768L52.2834 9.55042C51.808 9.58154 51.5924 9.73974 51.5924 10.0375C51.5924 10.3414 51.8619 10.5183 52.2325 10.5183C52.4519 10.54 52.671 10.4737 52.8395 10.3345C53.008 10.1954 53.1115 9.99527 53.1264 9.78003ZM56.1332 7.59046C55.261 7.59046 54.7002 8.26649 54.7002 9.33362C54.7002 10.4033 55.255 11.0794 56.1332 11.0793C56.5785 11.0954 56.9961 10.8684 57.2173 10.4901H57.2712V11.0237H57.9241V6.32812H57.2428V8.18296H57.1919C56.9861 7.80147 56.5736 7.57061 56.1332 7.59046ZM55.404 9.33362C55.404 10.0499 55.7492 10.481 56.3264 10.481C56.9006 10.481 57.2555 10.0437 57.2555 9.33655C57.2555 8.63269 56.8969 8.18921 56.3264 8.18921C55.7529 8.18921 55.404 8.62317 55.404 9.33362H55.404ZM61.5086 7.82182C60.9805 8.14245 60.6838 8.72829 60.7429 9.33362C60.6826 9.9396 60.9791 10.5266 61.5077 10.8479C62.0364 11.1692 62.7056 11.1692 63.2343 10.8479C63.7629 10.5266 64.0594 9.9396 63.999 9.33362C64.0582 8.72829 63.7615 8.14245 63.2333 7.82182C62.7052 7.50118 62.0368 7.50118 61.5086 7.82182ZM63.2983 9.33362C63.2983 8.60157 62.9621 8.17347 62.3721 8.17347C61.7799 8.17347 61.4468 8.60157 61.4468 9.33363C61.4468 10.0715 61.7799 10.4963 62.3721 10.4963C62.9621 10.4963 63.2983 10.0686 63.2983 9.33362ZM65.5691 7.64649H64.9132V11.0237H65.5945V9.04797C65.5701 8.82322 65.6472 8.59923 65.8056 8.43473C65.9641 8.27023 66.188 8.18162 66.4188 8.19214C66.9227 8.19214 67.1638 8.46204 67.1638 9.00476V11.0236H67.8451V8.83739C67.895 8.50719 67.7888 8.17268 67.5563 7.92832C67.3239 7.68396 66.9904 7.55627 66.6502 7.5813C66.2107 7.54635 65.797 7.78798 65.62 8.18298H65.5691V7.64649ZM71.6949 6.80567V7.66187H72.4429V8.22327H71.6949V9.95984C71.6949 10.3136 71.8439 10.4685 72.1831 10.4685C72.2699 10.4682 72.3566 10.4631 72.4429 10.4531V11.0083C72.3205 11.0297 72.1965 11.0411 72.0722 11.0423C71.3146 11.0423 71.0128 10.7816 71.0128 10.1305V8.22324H70.4648V7.66184H71.0128V6.80567H71.6949ZM74.0488 6.32812H73.3735L73.3735 11.0237H74.0548V9.05125C74.0338 8.81951 74.1183 8.59049 74.2859 8.42541C74.4535 8.26034 74.687 8.17604 74.9241 8.19506C75.4054 8.19506 75.6623 8.46825 75.6623 9.00768V11.0237H76.3443V8.84326C76.3894 8.51475 76.2824 8.18367 76.0525 7.94019C75.8226 7.69672 75.4937 7.56622 75.1553 7.58423C74.7092 7.54881 74.2883 7.79075 74.1027 8.18921H74.0488V6.32812ZM80.3169 10.1118C80.1259 10.7488 79.4957 11.1604 78.821 11.0889C78.3607 11.1007 77.9183 10.9141 77.6112 10.5784C77.3041 10.2427 77.1633 9.79196 77.2263 9.3457C77.165 8.89821 77.3052 8.44672 77.6106 8.1082C77.916 7.76969 78.3565 7.57745 78.818 7.5813C79.7786 7.5813 80.3581 8.2233 80.3581 9.2838V9.51636H77.9203V9.55371C77.8988 9.80432 77.9862 10.0522 78.1613 10.2364C78.3363 10.4206 78.5827 10.524 78.8397 10.5212C79.173 10.5604 79.4975 10.3986 79.661 10.1118L80.3169 10.1118ZM79.664 9.02344H77.9203C77.9172 8.79056 78.0104 8.56633 78.1787 8.40161C78.347 8.23689 78.5762 8.14564 78.8143 8.14856C79.0491 8.1433 79.2754 8.2353 79.4372 8.40191C79.599 8.56852 79.6814 8.79424 79.664 9.02344Z" fill="white"/>
<path fill-rule="evenodd" clip-rule="evenodd" d="M17.7494 6.54004C17.8236 7.48821 17.5171 8.42734 16.8949 9.158C16.2913 9.89244 15.3766 10.3155 14.4134 10.3058C14.3521 9.3849 14.6675 8.47797 15.2902 7.78474C15.9208 7.08212 16.7988 6.6377 17.7494 6.54004ZM20.7958 12.1113C19.6878 12.7777 19.0059 13.953 18.9891 15.2253C18.9907 16.6648 19.872 17.9639 21.2272 18.5247C20.9666 19.353 20.5737 20.1358 20.0631 20.8441C19.3774 21.8475 18.6585 22.8278 17.5174 22.8459C16.9747 22.8582 16.6083 22.7055 16.2266 22.5464C15.8285 22.3805 15.4135 22.2076 14.7643 22.2076C14.0757 22.2076 13.6422 22.3861 13.2241 22.5582C12.8628 22.7069 12.513 22.8509 12.0201 22.8709C10.9334 22.9103 10.1028 21.8 9.39222 20.806C7.97188 18.776 6.8659 15.0852 8.34863 12.5739C9.0449 11.35 10.3468 10.5733 11.7779 10.528C12.3942 10.5156 12.9856 10.748 13.5041 10.9518C13.9007 11.1076 14.2546 11.2466 14.5444 11.2466C14.7991 11.2466 15.1432 11.1131 15.5441 10.9574C16.1757 10.7122 16.9484 10.4122 17.7359 10.493C18.9596 10.5305 20.0936 11.1302 20.7958 12.1113Z" fill="white"/>
</svg>
