<svg width="104" height="30" viewBox="0 0 104 30" fill="none" xmlns="http://www.w3.org/2000/svg">
<rect x="0.507812" width="103.235" height="30" rx="5" fill="black"/>
<path fill-rule="evenodd" clip-rule="evenodd" d="M4.33134 0H99.9196C102.031 0 103.743 1.67893 103.743 3.75V26.25C103.743 28.3211 102.031 30 99.9196 30H4.33134C2.21966 30 0.507812 28.3211 0.507812 26.25V3.75C0.507812 1.67893 2.21966 0 4.33134 0ZM103.131 3.75C103.131 2.0103 101.693 0.6 99.9196 0.6H4.33134C2.55753 0.6 1.11958 2.0103 1.11958 3.75V26.25C1.11958 27.9897 2.55753 29.4 4.33134 29.4H99.9196C101.693 29.4 103.131 27.9897 103.131 26.25V3.75Z" fill="white"/>
<path fill-rule="evenodd" clip-rule="evenodd" d="M37.0149 17.2949V18.6449H40.3185C40.2667 19.2807 39.9972 19.8807 39.5538 20.3474C38.8854 21.015 37.9605 21.3746 37.0073 21.3374C34.9801 21.3374 33.3367 19.7256 33.3367 17.7374C33.3367 15.7491 34.9801 14.1374 37.0073 14.1374C37.9386 14.1225 38.8378 14.4704 39.5079 15.1049L40.4791 14.1524C39.5652 13.2448 38.3155 12.7388 37.0149 12.7499C35.1636 12.6792 33.4211 13.6076 32.474 15.1694C31.5269 16.7312 31.5269 18.676 32.474 20.2378C33.4211 21.7996 35.1636 22.728 37.0149 22.6574C38.3392 22.716 39.6247 22.2101 40.5402 21.2699C41.3414 20.4065 41.7692 19.2717 41.7332 18.1049C41.7356 17.8206 41.71 17.5368 41.6567 17.2574L37.0149 17.2949ZM45.4955 16.3124C43.7016 16.3165 42.2504 17.7454 42.2532 19.5048C42.256 21.2643 43.7118 22.6887 45.5057 22.6873C47.2997 22.686 48.7532 21.2593 48.7532 19.4999C48.7658 18.6481 48.4253 17.8279 47.8097 17.227C47.1942 16.6261 46.3562 16.296 45.4879 16.3124H45.4955ZM49.3803 19.5098C49.3746 17.7514 50.822 16.3206 52.6149 16.3124C53.4833 16.296 54.3212 16.6261 54.9368 17.227C55.5524 17.8279 55.8928 18.6481 55.8802 19.4999C55.8802 21.2583 54.4282 22.6846 52.6353 22.6873C50.8424 22.6901 49.3859 21.2683 49.3803 19.5098ZM50.6971 20.3387C51.0463 21.0556 51.8068 21.4903 52.6149 21.4349C53.1222 21.4233 53.6031 21.2113 53.9487 20.847C54.2943 20.4827 54.4751 19.9969 54.4502 19.4999C54.4483 18.7053 53.9513 17.9928 53.197 17.7029C52.4428 17.4131 51.5845 17.6049 51.0327 18.1866C50.481 18.7684 50.3479 19.6218 50.6971 20.3387ZM43.5726 20.3444C43.9242 21.0609 44.687 21.4934 45.4955 21.4349H45.4879C45.9951 21.4233 46.4761 21.2113 46.8216 20.847C47.1672 20.4827 47.3481 19.9969 47.3232 19.4999C47.321 18.7047 46.823 17.9918 46.0678 17.7026C45.3126 17.4134 44.4539 17.6068 43.9029 18.1901C43.3519 18.7735 43.2209 19.628 43.5726 20.3444ZM68.8802 16.3124C70.1481 16.3581 71.2555 17.1668 71.6638 18.3449L71.8243 18.6824L67.4732 20.4449C67.7459 21.054 68.3706 21.4377 69.0485 21.4124C69.7029 21.414 70.31 21.0778 70.6467 20.5274L71.7555 21.2774C71.1519 22.1634 70.135 22.6931 69.0485 22.6874C68.1848 22.6998 67.3531 22.3672 66.7445 21.766C66.1358 21.1649 65.8026 20.3468 65.8214 19.4999C65.7686 18.6723 66.0674 17.8601 66.6468 17.2563C67.2263 16.6524 68.0347 16.3107 68.8802 16.3124ZM67.2285 19.4099C67.1972 18.9412 67.3595 18.48 67.6789 18.1301C67.9982 17.7801 68.4478 17.571 68.9261 17.5499C69.4303 17.5173 69.9058 17.7829 70.1344 18.2249L67.2285 19.4099ZM65.1255 22.4999H63.6955V13.1249H65.1255V22.4999ZM61.3556 17.0249H61.3021C60.8662 16.5469 60.243 16.274 59.5891 16.2749C57.8534 16.3574 56.4893 17.7617 56.4893 19.4661C56.4893 21.1705 57.8534 22.5748 59.5891 22.6574C60.2451 22.6682 60.8723 22.3936 61.3021 21.9074H61.348V22.3649C61.348 23.5874 60.6827 24.2399 59.6121 24.2399C58.8828 24.2231 58.2362 23.7756 57.9756 23.1074L56.7291 23.6174C57.2091 24.7625 58.3497 25.5073 59.6121 25.4999C61.2868 25.4999 62.6709 24.5324 62.6709 22.1774V16.4999H61.3556V17.0249ZM59.7167 21.4347L59.7191 21.4349H59.7114L59.7167 21.4347ZM61.0053 20.8332C60.6771 21.1974 60.2117 21.4146 59.7167 21.4347C58.6954 21.3452 57.9124 20.5058 57.9124 19.4999C57.9124 18.4931 58.6966 17.6532 59.7191 17.5649C60.2132 17.5897 60.6761 17.8092 61.0029 18.1735C61.3297 18.5378 61.4927 19.016 61.4549 19.4999C61.4971 19.9859 61.3346 20.4677 61.0053 20.8332ZM78.3626 13.1249H74.9444V22.4999H76.3744V18.9449H78.3702C79.4811 19.0231 80.5435 18.4862 81.1233 17.5536C81.703 16.6209 81.703 15.4488 81.1233 14.5161C80.5435 13.5835 79.4811 13.0466 78.3702 13.1249H78.3626ZM76.3667 17.6249H78.3626L78.3932 17.6474C79.2991 17.6474 80.0335 16.9271 80.0335 16.0386C80.0335 15.1501 79.2991 14.4299 78.3932 14.4299H76.3667V17.6249ZM87.1796 16.2749C86.1157 16.2125 85.1155 16.7752 84.6332 17.7074L85.9026 18.2249C86.1583 17.7626 86.6682 17.492 87.2026 17.5349C87.5693 17.4929 87.9378 17.5971 88.2254 17.8241C88.513 18.0512 88.6955 18.382 88.732 18.7424V18.8399C88.2727 18.6014 87.7605 18.4777 87.2408 18.4799C85.872 18.4799 84.4879 19.2299 84.4879 20.5874C84.5152 21.1721 84.7825 21.7212 85.229 22.1097C85.6755 22.4982 86.2632 22.693 86.8585 22.6499C87.592 22.7015 88.2958 22.3564 88.6938 21.7499H88.7396V22.4999H90.1161V18.8924C90.1161 17.2499 88.8467 16.2974 87.2179 16.2974L87.1796 16.2749ZM85.8873 20.6174C85.8873 21.1799 86.5373 21.4124 87.0038 21.4124L87.042 21.4349C87.9035 21.4143 88.6178 20.7744 88.7167 19.9349C88.3199 19.7176 87.871 19.6089 87.4167 19.6199C86.6979 19.6199 85.8873 19.8674 85.8873 20.6174ZM95.1326 16.4999L93.4961 20.5649H93.4502L91.7526 16.4999H90.2232L92.7697 22.1849L91.3167 25.3424H92.8079L96.7232 16.4999H95.1326ZM83.7079 22.4999H82.2779V13.1249H83.7079V22.4999Z" fill="white"/>
<path fill-rule="evenodd" clip-rule="evenodd" d="M53.4329 5.8276C52.5307 6.76417 52.5307 8.22853 53.4329 9.1651C54.3635 10.0728 55.8669 10.0728 56.7976 9.1651C57.7036 8.23003 57.7036 6.76267 56.7976 5.8276C56.3525 5.38791 55.747 5.14062 55.1152 5.14062C54.4835 5.14062 53.878 5.38791 53.4329 5.8276ZM36.1964 9.1801C36.5889 8.7782 36.7962 8.23602 36.7699 7.6801C36.77 7.56693 36.7598 7.45399 36.7394 7.3426H34.5141V7.8826H36.1735C36.1621 8.22273 36.0264 8.5475 35.7911 8.7976C35.267 9.29451 34.4895 9.43336 33.8204 9.14954C33.1513 8.86573 32.7221 8.21499 32.7323 7.5001C32.7157 7.02701 32.8962 6.56769 33.2324 6.22805C33.5686 5.88842 34.0314 5.69778 34.5141 5.7001C34.9942 5.67437 35.4587 5.87161 35.7682 6.2326L36.1735 5.8351C35.9777 5.61427 35.7314 5.44207 35.4547 5.3326C35.1574 5.20785 34.8374 5.14404 34.5141 5.1451C33.8798 5.13124 33.268 5.37559 32.8241 5.8201C32.1408 6.49459 31.9364 7.50506 32.3054 8.38428C32.6743 9.26351 33.5447 9.84016 34.5141 9.8476C35.1461 9.86967 35.7578 9.62695 36.1964 9.1801ZM38.2076 5.8051H40.2723V5.2501H37.5958V9.7501H40.2723V9.1951H38.2076V7.7701H40.0888V7.2301H38.2076V5.8051ZM42.7805 9.7501H42.1917V5.8051H40.907V5.2501H44.0958V5.8051H42.7805V9.7501ZM46.3441 5.2501V9.7501H46.9329V5.2501H46.3441ZM49.5482 9.7501H48.9594V5.8051H47.6747V5.2501H50.8252V5.8051H49.5482V9.7501ZM53.8688 8.7901C54.558 9.46327 55.6725 9.46327 56.3617 8.7901C57.0386 8.05823 57.0386 6.94197 56.3617 6.2101C55.6725 5.53693 54.558 5.53693 53.8688 6.2101C53.1919 6.94197 53.1919 8.05823 53.8688 8.7901ZM58.3041 5.2501V9.7501H58.9005V6.0826L61.2329 9.7501H61.8447V5.2501H61.2558V8.7526L59.0229 5.2501H58.3041Z" fill="white"/>
<path d="M53.4329 9.1651L53.3608 9.23451L53.3631 9.23669L53.4329 9.1651ZM53.4329 5.8276L53.3626 5.75644L53.3609 5.75823L53.4329 5.8276ZM56.7976 9.1651L56.8674 9.23672L56.8694 9.23468L56.7976 9.1651ZM56.7976 5.8276L56.8694 5.758L56.8679 5.75646L56.7976 5.8276ZM36.7699 7.6801L36.6698 7.68006L36.6701 7.68482L36.7699 7.6801ZM36.1964 9.1801L36.2678 9.25015L36.268 9.24997L36.1964 9.1801ZM36.7394 7.3426L36.8377 7.32459L36.8227 7.2426H36.7394V7.3426ZM34.5141 7.3426V7.2426H34.4141V7.3426H34.5141ZM34.5141 7.8826H34.4141V7.9826H34.5141V7.8826ZM36.1735 7.8826L36.2734 7.88593L36.2769 7.7826H36.1735V7.8826ZM35.7911 8.7976L35.86 8.87029L35.864 8.86612L35.7911 8.7976ZM33.8204 9.14954L33.8595 9.05748L33.8204 9.14954ZM32.7323 7.5001L32.8324 7.50153L32.8322 7.49658L32.7323 7.5001ZM33.2324 6.22805L33.3035 6.2984L33.2324 6.22805ZM34.5141 5.7001L34.5136 5.80027L34.5194 5.79996L34.5141 5.7001ZM35.7682 6.2326L35.6923 6.29768L35.7619 6.37887L35.8382 6.30399L35.7682 6.2326ZM36.1735 5.8351L36.2435 5.90649L36.3114 5.83991L36.2483 5.76876L36.1735 5.8351ZM35.4547 5.3326L35.4159 5.42483L35.4179 5.42559L35.4547 5.3326ZM34.5141 5.1451L34.5119 5.24511L34.5144 5.2451L34.5141 5.1451ZM32.8241 5.8201L32.8943 5.89127L32.8948 5.89077L32.8241 5.8201ZM32.3054 8.38428L32.2131 8.42298H32.2131L32.3054 8.38428ZM34.5141 9.8476L34.5176 9.74762L34.5148 9.7476L34.5141 9.8476ZM40.2723 5.8051V5.9051H40.3723V5.8051H40.2723ZM38.2076 5.8051V5.7051H38.1076V5.8051H38.2076ZM40.2723 5.2501H40.3723V5.1501H40.2723V5.2501ZM37.5958 5.2501V5.1501H37.4958V5.2501H37.5958ZM37.5958 9.7501H37.4958V9.8501H37.5958V9.7501ZM40.2723 9.7501V9.8501H40.3723V9.7501H40.2723ZM40.2723 9.1951H40.3723V9.0951H40.2723V9.1951ZM38.2076 9.1951H38.1076V9.2951H38.2076V9.1951ZM38.2076 7.7701V7.6701H38.1076V7.7701H38.2076ZM40.0888 7.7701V7.8701H40.1888V7.7701H40.0888ZM40.0888 7.2301H40.1888V7.1301H40.0888V7.2301ZM38.2076 7.2301H38.1076V7.3301H38.2076V7.2301ZM42.1917 9.7501H42.0917V9.8501H42.1917V9.7501ZM42.7805 9.7501V9.8501H42.8805V9.7501H42.7805ZM42.1917 5.8051H42.2917V5.7051H42.1917V5.8051ZM40.907 5.8051H40.807V5.9051H40.907V5.8051ZM40.907 5.2501V5.1501H40.807V5.2501H40.907ZM44.0958 5.2501H44.1958V5.1501H44.0958V5.2501ZM44.0958 5.8051V5.9051H44.1958V5.8051H44.0958ZM42.7805 5.8051V5.7051H42.6805V5.8051H42.7805ZM46.3441 9.7501H46.2441V9.8501H46.3441V9.7501ZM46.3441 5.2501V5.1501H46.2441V5.2501H46.3441ZM46.9329 9.7501V9.8501H47.0329V9.7501H46.9329ZM46.9329 5.2501H47.0329V5.1501H46.9329V5.2501ZM48.9594 9.7501H48.8594V9.8501H48.9594V9.7501ZM49.5482 9.7501V9.8501H49.6482V9.7501H49.5482ZM48.9594 5.8051H49.0594V5.7051H48.9594V5.8051ZM47.6747 5.8051H47.5747V5.9051H47.6747V5.8051ZM47.6747 5.2501V5.1501H47.5747V5.2501H47.6747ZM50.8252 5.2501H50.9252V5.1501H50.8252V5.2501ZM50.8252 5.8051V5.9051H50.9252V5.8051H50.8252ZM49.5482 5.8051V5.7051H49.4482V5.8051H49.5482ZM56.3617 8.7901L56.4317 8.86173L56.4351 8.858L56.3617 8.7901ZM53.8688 8.7901L53.7953 8.85809L53.7989 8.86164L53.8688 8.7901ZM56.3617 6.2101L56.4352 6.14211L56.4316 6.13856L56.3617 6.2101ZM53.8688 6.2101L53.7988 6.13847L53.7954 6.1422L53.8688 6.2101ZM58.3041 9.7501H58.2041V9.8501H58.3041V9.7501ZM58.3041 5.2501V5.1501H58.2041V5.2501H58.3041ZM58.9005 9.7501V9.8501H59.0005V9.7501H58.9005ZM58.9005 6.0826L58.9849 6.02894L58.8005 5.73901V6.0826H58.9005ZM61.2329 9.7501L61.1485 9.80376L61.178 9.8501H61.2329V9.7501ZM61.8447 9.7501V9.8501H61.9447V9.7501H61.8447ZM61.8447 5.2501H61.9447V5.1501H61.8447V5.2501ZM61.2558 5.2501V5.1501H61.1558V5.2501H61.2558ZM61.2558 8.7526L61.1715 8.80636L61.3558 9.09548V8.7526H61.2558ZM59.0229 5.2501L59.1072 5.19634L59.0777 5.1501H59.0229V5.2501ZM53.5049 9.09573C52.6401 8.19788 52.6401 6.79482 53.5049 5.89697L53.3609 5.75823C52.4214 6.73353 52.4214 8.25917 53.3609 9.23447L53.5049 9.09573ZM56.7278 9.09351C55.836 9.9633 54.3945 9.9633 53.5027 9.09351L53.3631 9.23669C54.3326 10.1822 55.8979 10.1822 56.8674 9.23669L56.7278 9.09351ZM56.7258 5.89719C57.5942 6.79347 57.5942 8.19923 56.7258 9.09551L56.8694 9.23468C57.813 8.26083 57.813 6.73187 56.8694 5.75801L56.7258 5.89719ZM55.1152 5.24063C55.7209 5.24063 56.3012 5.47774 56.7273 5.89874L56.8679 5.75646C56.4039 5.29808 55.773 5.04062 55.1152 5.04062V5.24063ZM53.5032 5.89874C53.9293 5.47774 54.5096 5.24063 55.1152 5.24063V5.04062C54.4575 5.04062 53.8266 5.29808 53.3626 5.75646L53.5032 5.89874ZM36.6701 7.68482C36.695 8.21273 36.4982 8.72797 36.1249 9.11023L36.268 9.24997C36.6796 8.82842 36.8974 8.25932 36.8698 7.67538L36.6701 7.68482ZM36.641 7.36061C36.6603 7.46605 36.67 7.57295 36.67 7.68006L36.8699 7.68014C36.87 7.56091 36.8592 7.44193 36.8377 7.32459L36.641 7.36061ZM34.5141 7.4426H36.7394V7.2426H34.5141V7.4426ZM34.6141 7.8826V7.3426H34.4141V7.8826H34.6141ZM36.1735 7.7826H34.5141V7.9826H36.1735V7.7826ZM35.864 8.86612C36.1158 8.59849 36.2613 8.2506 36.2734 7.88593L36.0735 7.87927C36.063 8.19485 35.9371 8.49651 35.7183 8.72908L35.864 8.86612ZM33.7814 9.2416C34.4868 9.54083 35.3067 9.39468 35.8599 8.87017L35.7223 8.72503C35.2273 9.19434 34.4922 9.32589 33.8595 9.05748L33.7814 9.2416ZM32.6323 7.49867C32.6215 8.2551 33.0757 8.94226 33.7814 9.2416L33.8595 9.05748C33.227 8.7892 32.8226 8.17489 32.8323 7.50153L32.6323 7.49867ZM33.1614 6.1577C32.806 6.51672 32.6147 7.00268 32.6324 7.50362L32.8322 7.49658C32.8166 7.05134 32.9865 6.61866 33.3035 6.2984L33.1614 6.1577ZM34.5145 5.6001C34.0053 5.59765 33.5167 5.79876 33.1614 6.1577L33.3035 6.2984C33.6206 5.97807 34.0575 5.7979 34.5136 5.8001L34.5145 5.6001ZM35.8441 6.16752C35.5142 5.78263 35.0195 5.57287 34.5087 5.60024L34.5194 5.79996C34.969 5.77586 35.4033 5.96059 35.6923 6.29768L35.8441 6.16752ZM36.1035 5.76371L35.6982 6.16121L35.8382 6.30399L36.2435 5.90649L36.1035 5.76371ZM35.4179 5.42559C35.6801 5.52933 35.9134 5.69245 36.0987 5.90144L36.2483 5.76876C36.042 5.53608 35.7826 5.3548 35.4914 5.23961L35.4179 5.42559ZM34.5144 5.2451C34.8243 5.24409 35.1311 5.30526 35.416 5.42481L35.4934 5.24039C35.1837 5.11044 34.8504 5.044 34.5137 5.0451L34.5144 5.2451ZM32.8948 5.89077C33.3193 5.46579 33.9046 5.2318 34.5119 5.24508L34.5163 5.04512C33.855 5.03067 33.2168 5.2854 32.7533 5.74943L32.8948 5.89077ZM32.3976 8.34559C32.0446 7.50437 32.2399 6.53732 32.8943 5.89126L32.7538 5.74894C32.0418 6.45186 31.8283 7.50574 32.2131 8.42298L32.3976 8.34559ZM34.5148 9.7476C33.5846 9.74046 32.7507 9.18713 32.3976 8.34559L32.2131 8.42298C32.5979 9.33989 33.5048 9.93986 34.5133 9.9476L34.5148 9.7476ZM36.1251 9.11005C35.7063 9.53665 35.1219 9.76876 34.5176 9.74766L34.5106 9.94754C35.1703 9.97058 35.8093 9.71725 36.2678 9.25015L36.1251 9.11005ZM40.2723 5.7051H38.2076V5.9051H40.2723V5.7051ZM40.1723 5.2501V5.8051H40.3723V5.2501H40.1723ZM37.5958 5.3501H40.2723V5.1501H37.5958V5.3501ZM37.6958 9.7501V5.2501H37.4958V9.7501H37.6958ZM40.2723 9.6501H37.5958V9.8501H40.2723V9.6501ZM40.1723 9.1951V9.7501H40.3723V9.1951H40.1723ZM38.2076 9.2951H40.2723V9.0951H38.2076V9.2951ZM38.1076 7.7701V9.1951H38.3076V7.7701H38.1076ZM40.0888 7.6701H38.2076V7.8701H40.0888V7.6701ZM39.9888 7.2301V7.7701H40.1888V7.2301H39.9888ZM38.2076 7.3301H40.0888V7.1301H38.2076V7.3301ZM38.1076 5.8051V7.2301H38.3076V5.8051H38.1076ZM42.1917 9.8501H42.7805V9.6501H42.1917V9.8501ZM42.0917 5.8051V9.7501H42.2917V5.8051H42.0917ZM40.907 5.9051H42.1917V5.7051H40.907V5.9051ZM40.807 5.2501V5.8051H41.007V5.2501H40.807ZM44.0958 5.1501H40.907V5.3501H44.0958V5.1501ZM44.1958 5.8051V5.2501H43.9958V5.8051H44.1958ZM42.7805 5.9051H44.0958V5.7051H42.7805V5.9051ZM42.8805 9.7501V5.8051H42.6805V9.7501H42.8805ZM46.4441 9.7501V5.2501H46.2441V9.7501H46.4441ZM46.9329 9.6501H46.3441V9.8501H46.9329V9.6501ZM46.8329 5.2501V9.7501H47.0329V5.2501H46.8329ZM46.3441 5.3501H46.9329V5.1501H46.3441V5.3501ZM48.9594 9.8501H49.5482V9.6501H48.9594V9.8501ZM48.8594 5.8051V9.7501H49.0594V5.8051H48.8594ZM47.6747 5.9051H48.9594V5.7051H47.6747V5.9051ZM47.5747 5.2501V5.8051H47.7747V5.2501H47.5747ZM50.8252 5.1501H47.6747V5.3501H50.8252V5.1501ZM50.9252 5.8051V5.2501H50.7252V5.8051H50.9252ZM49.5482 5.9051H50.8252V5.7051H49.5482V5.9051ZM49.6482 9.7501V5.8051H49.4482V9.7501H49.6482ZM56.2918 8.71856C55.6414 9.35379 54.589 9.35379 53.9386 8.71856L53.7989 8.86164C54.527 9.57276 55.7035 9.57276 56.4316 8.86164L56.2918 8.71856ZM56.2883 6.278C56.9298 6.97155 56.9298 8.02865 56.2883 8.7222L56.4351 8.858C57.1475 8.0878 57.1475 6.9124 56.4351 6.1422L56.2883 6.278ZM53.9386 6.28164C54.589 5.64641 55.6414 5.64641 56.2918 6.28164L56.4316 6.13856C55.7035 5.42744 54.527 5.42744 53.7989 6.13856L53.9386 6.28164ZM53.9422 8.7222C53.3007 8.02865 53.3007 6.97155 53.9422 6.278L53.7954 6.1422C53.083 6.9124 53.083 8.0878 53.7954 8.858L53.9422 8.7222ZM58.4041 9.7501V5.2501H58.2041V9.7501H58.4041ZM58.9005 9.6501H58.3041V9.8501H58.9005V9.6501ZM58.8005 6.0826V9.7501H59.0005V6.0826H58.8005ZM61.3173 9.69644L58.9849 6.02894L58.8162 6.13626L61.1485 9.80376L61.3173 9.69644ZM61.8447 9.6501H61.2329V9.8501H61.8447V9.6501ZM61.7447 5.2501V9.7501H61.9447V5.2501H61.7447ZM61.2558 5.3501H61.8447V5.1501H61.2558V5.3501ZM61.3558 8.7526V5.2501H61.1558V8.7526H61.3558ZM58.9386 5.30386L61.1715 8.80636L61.3402 8.69884L59.1072 5.19634L58.9386 5.30386ZM58.3041 5.3501H59.0229V5.1501H58.3041V5.3501Z" fill="white"/>
<path d="M8.49122 5.65504C8.24198 5.94837 8.11618 6.32389 8.13946 6.70504V23.295C8.11618 23.6762 8.24198 24.0517 8.49122 24.345L8.54475 24.3975L18.0195 15.1125V14.895L8.54475 5.60254L8.49122 5.65504Z" fill="url(#paint0_linear_350_33314)"/>
<path d="M21.1548 18.21L18.0195 15.1125V14.895L21.1548 11.79L21.2236 11.8275L24.9784 13.92C26.0489 14.5125 26.0489 15.4875 24.9784 16.0875L21.2389 18.1725L21.1548 18.21Z" fill="url(#paint1_linear_350_33314)"/>
<path d="M21.2465 18.165L18.0194 15L8.49121 24.345C8.94141 24.7331 9.60954 24.752 10.0818 24.39L21.2542 18.165" fill="url(#paint2_linear_350_33314)"/>
<path d="M21.2463 11.8349L10.074 5.60992C9.60173 5.24787 8.93359 5.26677 8.4834 5.65492L18.0193 14.9999L21.2463 11.8349Z" fill="url(#paint3_linear_350_33314)"/>
<path opacity="0.2" d="M21.1547 18.0977L10.0742 24.2852C9.62071 24.6177 8.99818 24.6177 8.54474 24.2852L8.49121 24.3377L8.54474 24.3902C8.99733 24.7252 9.62156 24.7252 10.0742 24.3902L21.2465 18.1652L21.1547 18.0977Z" fill="black"/>
<path opacity="0.12" fill-rule="evenodd" clip-rule="evenodd" d="M21.1548 18.0975L24.9783 15.975C25.3734 15.7837 25.6558 15.4236 25.743 15C25.7036 15.4683 25.4119 15.8802 24.9783 16.08L21.2236 18.165L21.1548 18.0975ZM8.13779 23.336C8.15042 23.666 8.2739 23.9842 8.49122 24.24L8.54475 24.3L8.49122 24.3525C8.24928 24.0678 8.12366 23.7056 8.13779 23.336ZM8.13779 23.336C8.13822 23.3248 8.13878 23.3137 8.13946 23.3025V23.19C8.13648 23.2388 8.13594 23.2875 8.13779 23.336Z" fill="black"/>
<path opacity="0.25" d="M10.0742 5.71483L24.9783 14.0248C25.3734 14.2161 25.6559 14.5762 25.743 14.9998C25.7036 14.5315 25.4119 14.1196 24.9783 13.9198L10.0742 5.60983C9.0036 5.01733 8.13184 5.51233 8.13184 6.71233V6.82483C8.15478 5.61733 9.01125 5.12233 10.0742 5.71483Z" fill="white"/>
<defs>
<linearGradient id="paint0_linear_350_33314" x1="13.8696" y1="-5.66919" x2="-1.26217" y2="-1.56596" gradientUnits="userSpaceOnUse">
<stop stop-color="#00A0FF"/>
<stop offset="0.01" stop-color="#00A1FF"/>
<stop offset="0.26" stop-color="#00BEFF"/>
<stop offset="0.51" stop-color="#00D2FF"/>
<stop offset="0.76" stop-color="#00DFFF"/>
<stop offset="1" stop-color="#00E3FF"/>
</linearGradient>
<linearGradient id="paint1_linear_350_33314" x1="26.3778" y1="7.3498" x2="7.87953" y2="7.3498" gradientUnits="userSpaceOnUse">
<stop stop-color="#FFE000"/>
<stop offset="0.41" stop-color="#FFBD00"/>
<stop offset="0.78" stop-color="#FFA500"/>
<stop offset="1" stop-color="#FF9C00"/>
</linearGradient>
<linearGradient id="paint2_linear_350_33314" x1="8.21124" y1="10.1456" x2="-3.62901" y2="30.4526" gradientUnits="userSpaceOnUse">
<stop stop-color="#FF3A44"/>
<stop offset="1" stop-color="#C31162"/>
</linearGradient>
<linearGradient id="paint3_linear_350_33314" x1="1.05047" y1="3.07192" x2="6.33538" y2="12.1399" gradientUnits="userSpaceOnUse">
<stop stop-color="#32A071"/>
<stop offset="0.07" stop-color="#2DA771"/>
<stop offset="0.48" stop-color="#15CF74"/>
<stop offset="0.8" stop-color="#06E775"/>
<stop offset="1" stop-color="#00F076"/>
</linearGradient>
</defs>
</svg>
