<?xml version="1.0" encoding="UTF-8"?>
<svg width="157px" height="17px" viewBox="0 0 157 17" version="1.1" xmlns="http://www.w3.org/2000/svg" xmlns:xlink="http://www.w3.org/1999/xlink">
    <!-- Generator: Sketch 48.2 (47327) - http://www.bohemiancoding.com/sketch -->
    <title>wlogo-black-157x17</title>
    <desc>Created with Sketch.</desc>
    <defs></defs>
    <g id="Page-1" stroke="none" stroke-width="1" fill="none" fill-rule="evenodd">
        <g id="wlogo-black-157x17" fill="#000000" fill-rule="nonzero">
            <g id="logo-black-157x17">
                <path d="M18.645,15.651 L14.749,15.651 L12,7.108 L9.352,15.651 L5.405,15.651 L0.259,0.712 L4.556,0.712 L7.604,9.806 L10.403,0.712 L13.701,0.712 L16.549,9.806 L19.447,0.712 L23.695,0.712 L18.645,15.651 Z M62.067,0.711 L62.067,12.154 L66.763,12.154 L66.763,15.65 L57.82,15.65 L57.82,0.711 L62.067,0.711 Z M83.453,15.651 L79.556,15.651 L76.807,7.108 L74.209,15.651 L70.211,15.651 L65.065,0.712 L69.362,0.712 L72.41,9.806 L75.208,0.712 L78.505,0.712 L81.355,9.806 L84.302,0.712 L88.549,0.712 L83.453,15.651 Z M110.985,0.711 C112.734,0.711 113.382,0.86 114.182,1.26 C114.331,1.361 114.732,1.561 115.131,1.91 C115.681,2.41 116.38,3.459 116.38,5.258 C116.38,5.858 116.33,7.256 115.281,8.506 C115.131,8.656 114.881,9.006 114.43,9.256 C114.281,9.356 114.079,9.455 113.68,9.654 L118.077,15.65 L113.08,15.65 L109.482,10.504 L109.482,15.65 L105.485,15.65 L105.485,0.711 L110.985,0.711 Z M109.486,7.307 L110.184,7.307 C110.634,7.307 112.183,7.407 112.183,5.659 C112.183,4.11 110.833,4.11 110.384,4.11 L109.435,4.11 L109.435,7.307 L109.486,7.307 Z M128.324,0.711 L128.324,4.158 L125.225,4.158 L125.225,15.65 L121.029,15.65 L121.029,4.158 L117.881,4.158 L117.881,0.711 L128.324,0.711 Z M134.37,0.711 L134.37,6.307 L139.167,6.307 L139.167,0.711 L143.414,0.711 L143.414,15.65 L139.167,15.65 L139.167,9.754 L134.37,9.754 L134.37,15.65 L130.123,15.65 L130.123,0.711 L134.37,0.711 Z M154.208,4.809 C153.958,4.61 153.708,4.411 153.458,4.26 C153.309,4.16 152.209,3.51 151.26,3.51 C150.112,3.51 149.711,4.209 149.711,4.758 C149.711,5.158 149.96,5.459 150.21,5.658 C150.561,5.857 151.16,6.056 152.009,6.258 C152.259,6.307 153.859,6.658 154.859,7.457 C155.507,7.957 156.256,8.955 156.256,10.805 C156.256,12.155 155.906,13.303 155.007,14.303 C153.859,15.602 152.36,16.051 150.71,16.051 C147.861,16.051 146.213,14.852 145.314,14.203 L146.762,11.103 C146.911,11.253 147.113,11.404 147.312,11.503 C148.612,12.401 149.611,12.751 150.31,12.751 C151.309,12.751 152.16,12.202 152.16,11.151 C152.16,10.801 152.059,10.503 151.86,10.253 C151.41,9.704 150.661,9.603 150.06,9.403 C149.46,9.253 148.412,9.003 147.862,8.704 C147.062,8.304 145.664,7.405 145.664,5.157 C145.664,4.108 145.914,3.357 146.062,3.007 C146.613,1.809 147.913,0.36 150.911,0.36 C152.71,0.36 153.959,0.91 154.608,1.209 C155.006,1.41 155.358,1.66 155.756,1.91 L154.208,4.809 Z M48.326,0.362 C43.978,0.362 40.43,3.909 40.43,8.257 C40.43,12.605 43.978,16.153 48.326,16.153 C52.673,16.153 56.221,12.604 56.221,8.257 C56.221,3.859 52.673,0.362 48.326,0.362 Z M48.326,11.905 C46.277,11.905 44.678,10.255 44.678,8.257 C44.678,6.208 46.327,4.611 48.326,4.611 C50.325,4.611 51.972,6.259 51.972,8.257 C52.023,10.254 50.374,11.905 48.326,11.905 Z M96.195,0.362 C91.846,0.362 88.299,3.909 88.299,8.257 C88.299,12.605 91.847,16.153 96.195,16.153 C100.542,16.153 104.09,12.604 104.09,8.257 C104.04,3.859 100.542,0.362 96.195,0.362 Z M96.195,11.905 C94.146,11.905 92.547,10.255 92.547,8.257 C92.547,6.208 94.196,4.611 96.195,4.611 C98.243,4.611 99.841,6.259 99.841,8.257 C99.843,10.254 98.243,11.905 96.195,11.905 Z M31.236,0.362 C26.888,0.362 23.34,3.909 23.34,8.257 C23.34,12.605 26.888,16.153 31.236,16.153 C35.584,16.153 39.131,12.553 39.131,8.208 C39.131,3.86 35.584,0.362 31.236,0.362 Z M31.236,11.905 C29.187,11.905 27.589,10.255 27.589,8.257 C27.589,6.208 29.238,4.611 31.236,4.611 C33.235,4.611 34.883,6.259 34.883,8.257 C34.934,10.254 33.285,11.905 31.236,11.905 Z" id="Shape"></path>
            </g>
        </g>
    </g>
</svg>